<?xml version="1.0" standalone="no"?>
<!DOCTYPE svg PUBLIC "-//W3C//DTD SVG 20010904//EN"
 "http://www.w3.org/TR/2001/REC-SVG-20010904/DTD/svg10.dtd">
<svg version="1.0" xmlns="http://www.w3.org/2000/svg"
 width="500.000000pt" height="500.000000pt" viewBox="0 0 500.000000 500.000000"
 preserveAspectRatio="xMidYMid meet">
<metadata>
Created by potrace 1.14, written by Peter Selinger 2001-2017
</metadata>
<g transform="translate(0.000000,500.000000) scale(0.100000,-0.100000)"
fill="#000000" stroke="none">
<path d="M2633 4643 c-21 -22 -52 -57 -70 -79 -17 -21 -39 -49 -50 -60 -10
-12 -30 -37 -45 -55 -30 -39 -59 -73 -91 -109 -13 -14 -41 -47 -62 -75 -22
-27 -44 -55 -50 -61 -5 -6 -28 -32 -50 -59 -113 -136 -251 -301 -260 -311 -5
-6 -26 -30 -45 -54 -19 -24 -75 -91 -123 -149 -49 -58 -96 -115 -105 -126 -70
-83 -119 -142 -127 -151 -5 -6 -26 -30 -45 -54 -19 -24 -47 -58 -61 -75 -14
-16 -35 -41 -46 -55 -12 -14 -38 -46 -59 -71 -22 -25 -55 -65 -74 -89 -19 -24
-39 -48 -45 -54 -5 -6 -36 -43 -68 -81 -80 -95 -86 -102 -137 -165 -25 -30
-47 -57 -50 -60 -3 -3 -28 -32 -55 -65 -28 -33 -54 -65 -60 -71 -5 -6 -26 -30
-45 -54 -32 -40 -80 -98 -134 -160 -11 -14 -39 -47 -61 -75 -22 -27 -43 -52
-46 -55 -21 -20 -39 -60 -39 -91 0 -40 36 -88 67 -90 10 -1 416 -2 903 -3 875
-1 885 -2 884 -21 -1 -17 -10 -97 -19 -170 -2 -11 -6 -45 -10 -75 -3 -30 -8
-66 -10 -80 -2 -14 -6 -50 -10 -80 -3 -30 -8 -66 -10 -80 -2 -14 -7 -50 -10
-80 -5 -52 -16 -131 -31 -245 -4 -27 -7 -53 -6 -56 0 -3 -3 -37 -9 -75 -18
-133 -24 -176 -35 -274 -3 -25 -7 -56 -9 -70 -2 -14 -7 -52 -10 -85 -4 -33 -9
-73 -12 -90 -10 -59 -10 -110 -1 -130 13 -29 59 -55 98 -55 31 0 57 20 115 91
45 55 121 145 130 155 6 6 26 30 45 54 19 24 40 48 45 54 6 6 42 49 80 96 67
82 78 94 125 150 12 14 34 40 48 59 15 18 36 43 47 56 11 12 36 41 54 65 19
23 40 48 46 54 5 6 41 49 79 96 39 47 72 87 75 90 5 4 69 81 111 134 8 10 22
26 31 35 8 9 33 38 55 66 21 27 46 56 54 65 8 9 29 33 45 54 17 21 35 44 40
50 6 6 33 38 60 71 28 33 52 62 55 65 3 3 25 30 50 60 25 30 47 57 50 60 3 3
24 27 45 55 22 27 45 56 52 63 7 7 29 34 50 60 21 26 43 53 50 60 7 7 29 34
50 60 21 26 40 49 43 52 3 3 28 32 55 65 28 33 52 62 55 65 3 3 24 27 45 55
22 27 45 56 52 63 7 7 29 34 50 60 21 26 40 49 43 52 3 3 28 32 55 65 28 33
56 66 62 73 45 48 14 159 -46 163 -9 1 -410 3 -891 4 -481 1 -880 3 -887 4 -6
0 -10 10 -8 20 2 11 6 44 9 73 4 29 8 69 11 88 2 19 7 60 10 90 4 30 8 66 11
80 2 14 7 50 9 80 3 30 7 66 10 80 3 14 7 45 10 70 3 25 12 97 20 160 8 63 17
138 20 165 4 28 8 61 10 74 3 14 7 52 10 85 4 34 9 75 11 91 3 17 7 46 9 65 2
19 6 55 10 80 3 25 8 59 10 75 1 17 6 57 10 90 13 104 13 119 2 140 -19 36
-38 48 -82 53 -42 4 -47 2 -82 -35z m-67 -410 c-4 -21 -14 -97 -21 -163 -6
-55 -12 -104 -19 -150 -3 -19 -8 -55 -10 -80 -3 -25 -12 -101 -21 -170 -9 -69
-18 -141 -20 -160 -19 -152 -26 -209 -30 -238 -3 -18 -7 -54 -10 -80 -8 -72
-15 -125 -20 -152 -12 -67 -14 -142 -3 -165 26 -58 -18 -55 903 -56 465 0 845
-2 845 -4 0 -1 -13 -18 -29 -37 -16 -18 -158 -188 -316 -378 -157 -190 -303
-365 -324 -390 -21 -25 -66 -79 -100 -120 -34 -41 -70 -84 -79 -95 -46 -54
-196 -235 -262 -315 -25 -30 -57 -68 -71 -85 -15 -16 -111 -131 -214 -255
-102 -124 -196 -236 -208 -250 -12 -14 -46 -54 -75 -89 -47 -58 -52 -61 -48
-35 2 16 7 52 11 79 3 28 10 84 15 125 5 41 12 91 14 110 13 105 27 218 31
240 2 14 6 52 10 85 8 72 11 97 25 195 5 41 12 99 15 127 2 29 7 65 9 80 5 35
14 103 21 168 3 28 8 66 11 85 6 43 -11 84 -42 105 -21 14 -117 15 -870 15
-803 0 -846 1 -833 18 17 21 846 1019 904 1087 23 28 205 246 404 485 416 500
399 480 405 480 3 0 3 -8 2 -17z"/>
</g>
</svg>
